<svg width="14" height="13" viewBox="0 0 14 13" fill="none" xmlns="http://www.w3.org/2000/svg">
<path d="M12.1985 4.20197L13.2007 3.19977C13.5547 2.84576 13.75 2.37488 13.75 1.87408C13.75 1.37329 13.5547 0.902405 13.2007 0.548401C12.4695 -0.1828 11.2805 -0.1828 10.5493 0.548401L7.34837 3.74908H3.125C1.40198 3.74908 0 5.15106 0 6.87408V9.37408C0 11.0971 1.40198 12.4991 3.125 12.4991H10.625C12.348 12.4991 13.75 11.0971 13.75 9.37408V6.87408C13.75 5.72887 13.1213 4.7427 12.1985 4.20197ZM11.4331 1.43219C11.5552 1.31043 11.7151 1.24939 11.875 1.24939C12.0349 1.24939 12.1948 1.31043 12.3169 1.4325C12.4353 1.55029 12.5 1.70715 12.5 1.87409C12.5 2.04102 12.4353 2.19788 12.3169 2.31568L8.7616 5.87097C8.66455 5.96832 8.53638 6.03119 8.39966 6.04889L7.59766 6.15143L7.70081 5.34851C7.7179 5.21271 7.78076 5.08423 7.87842 4.98688L11.4331 1.43219ZM12.5 9.37409C12.5 10.408 11.6589 11.2491 10.625 11.2491H3.125C2.09106 11.2491 1.25 10.408 1.25 9.37409V6.87409C1.25 5.84015 2.09106 4.99909 3.125 4.99909H6.50139C6.48632 5.06268 6.46881 5.12573 6.46057 5.19074L6.25488 6.79474C6.23047 6.98669 6.29639 7.17926 6.4331 7.31598C6.5509 7.43408 6.7102 7.49909 6.875 7.49909C6.90124 7.49909 6.9281 7.49756 6.95435 7.4939L8.55835 7.28851C8.96789 7.23633 9.35425 7.04651 9.64599 6.75446L11.2705 5.12997C11.985 5.39322 12.5 6.06892 12.5 6.87409L12.5 9.37409ZM10.625 9.37409C10.625 9.71924 10.3455 9.99909 10 9.99909H3.75C3.40454 9.99909 3.125 9.71924 3.125 9.37409C3.125 9.02893 3.40454 8.74909 3.75 8.74909H10C10.3455 8.74909 10.625 9.02893 10.625 9.37409ZM3.125 6.87409C3.125 6.52893 3.40454 6.24909 3.75 6.24909H4.375C4.72046 6.24909 5 6.52893 5 6.87409C5 7.21924 4.72046 7.49909 4.375 7.49909H3.75C3.40454 7.49909 3.125 7.21924 3.125 6.87409Z" fill="#2A2C31"/>
</svg>
