<svg xmlns="http://www.w3.org/2000/svg" width="18" height="18" fill="#fff"><g clip-path="url(#calendar_svg__a)"><path   d="M14.25 2.326V1.5a.75.75 0 1 0-1.5 0v.75h-3V1.5a.75.75 0 1 0-1.5 0v.75h-3V1.5a.75.75 0 1 0-1.5 0v.826C2.04 2.674.75 4.189.75 6v7.5a3.754 3.754 0 0 0 3.75 3.75h9a3.754 3.754 0 0 0 3.75-3.75V6c0-1.81-1.29-3.326-3-3.674m1.5 11.174c0 1.24-1.01 2.25-2.25 2.25h-9c-1.24 0-2.25-1.01-2.25-2.25V6c0-.976.629-1.801 1.5-2.112V4.5a.75.75 0 1 0 1.5 0v-.75h3v.75a.75.75 0 1 0 1.5 0v-.75h3v.75a.75.75 0 1 0 1.5 0v-.612c.871.31 1.5 1.136 1.5 2.112z"></path></g><defs><clipPath id="calendar_svg__a"><path   d="M0 0h18v18H0z"></path></clipPath></defs></svg>