<svg width="36" height="42" viewBox="0 0 36 42" fill="none" xmlns="http://www.w3.org/2000/svg">
<path d="M21.3678 0.0164359C20.3326 -0.0884676 19.3017 0.315306 18.6088 1.09363L6.64496 14.5851L4.05983 16.0776C0.181095 18.317 -1.1528 23.2951 1.08659 27.1739C2.44892 29.5335 4.82781 30.9343 7.35314 31.1788L13.7648 39.9773C15.2231 41.9795 17.9416 42.5552 20.087 41.3165C21.2824 40.6264 22.1276 39.4551 22.4046 38.1025C22.6821 36.7507 22.3676 35.3412 21.5407 34.2358L20.8812 33.3543L21.374 33.0698C23.6972 31.7285 24.8661 29.1597 24.5608 26.6509L32.4343 25.0399C32.779 24.9691 33.1066 24.8432 33.4047 24.6711C33.9894 24.3336 34.4638 23.8178 34.7466 23.1892C35.1737 22.2392 35.118 21.1337 34.5972 20.2317L23.8544 1.62462C23.3336 0.722609 22.4041 0.121629 21.3678 0.0164359ZM5.68443 18.8915L7.09138 18.0792L11.9652 26.5209L10.5582 27.3332C8.23073 28.677 5.24428 27.8768 3.90049 25.5493C2.5567 23.2217 3.35692 20.2353 5.68443 18.8915ZM19.222 37.4495C19.1299 37.8993 18.8595 38.2734 18.4624 38.5026C17.759 38.9088 16.8687 38.7202 16.3901 38.0641L11.0068 30.6763C11.4048 30.5245 11.8023 30.3668 12.1829 30.1471L13.7479 29.2435L18.9388 36.1832C19.2138 36.5501 19.314 36.9997 19.222 37.4495ZM19.7494 30.2559L18.921 30.7342L17.0204 28.1937L21.356 27.3066C21.4027 28.4752 20.8308 29.6315 19.7494 30.2559ZM31.7826 21.8567L15.006 25.2892L9.6784 16.0616L21.0405 3.24923L31.7882 21.8553L31.7826 21.8567Z" fill="#DB0D15"/>
</svg>
