<svg width="22" height="20" viewBox="0 0 22 20" fill="none" xmlns="http://www.w3.org/2000/svg">
<path d="M19.5176 6.72315L21.1211 5.11963C21.6875 4.55322 22 3.79981 22 2.99854C22 2.19727 21.6875 1.44385 21.1211 0.877442C19.9512 -0.29248 18.0488 -0.29248 16.8789 0.877442L11.7574 5.99854H5C2.24316 5.99854 0 8.2417 0 10.9985V14.9985C0 17.7554 2.24316 19.9985 5 19.9985H17C19.7568 19.9985 22 17.7554 22 14.9985V10.9985C22 9.1662 20.9941 7.58832 19.5176 6.72315ZM18.293 2.29151C18.4883 2.09668 18.7441 1.99903 19 1.99903C19.2559 1.99903 19.5117 2.09668 19.707 2.29199C19.8965 2.48047 20 2.73145 20 2.99854C20 3.26563 19.8965 3.5166 19.707 3.70508L14.0186 9.39356C13.8633 9.54932 13.6582 9.6499 13.4395 9.67822L12.1562 9.84229L12.3213 8.55762C12.3486 8.34033 12.4492 8.13477 12.6055 7.97901L18.293 2.29151ZM20 14.9985C20 16.6528 18.6543 17.9985 17 17.9985H5C3.3457 17.9985 2 16.6528 2 14.9985V10.9985C2 9.34424 3.3457 7.99854 5 7.99854H10.4022C10.3781 8.10028 10.3501 8.20117 10.3369 8.30518L10.0078 10.8716C9.96875 11.1787 10.0742 11.4868 10.293 11.7056C10.4814 11.8945 10.7363 11.9985 11 11.9985C11.042 11.9985 11.085 11.9961 11.127 11.9902L13.6934 11.6616C14.3486 11.5781 14.9668 11.2744 15.4336 10.8071L18.0328 8.20795C19.176 8.62915 20 9.71027 20 10.9985L20 14.9985ZM17 14.9985C17 15.5508 16.5527 15.9985 16 15.9985H6C5.44727 15.9985 5 15.5508 5 14.9985C5 14.4463 5.44727 13.9985 6 13.9985H16C16.5527 13.9985 17 14.4463 17 14.9985ZM5 10.9985C5 10.4463 5.44727 9.99854 6 9.99854H7C7.55273 9.99854 8 10.4463 8 10.9985C8 11.5508 7.55273 11.9985 7 11.9985H6C5.44727 11.9985 5 11.5508 5 10.9985Z" fill="white"/>
</svg>
