<svg xmlns="http://www.w3.org/2000/svg" width="18" height="18" fill="#fff"><g clip-path="url(#count_svg__a)"><path  d="M13.5.75h-9A3.754 3.754 0 0 0 .75 4.5V9c0 1.81 1.29 3.326 3 3.674v3.076H3a.75.75 0 1 0 0 1.5h3a.75.75 0 1 0 0-1.5h-.75v-3h7.5v3H12a.75.75 0 1 0 0 1.5h3a.75.75 0 1 0 0-1.5h-.75v-3.076c1.71-.348 3-1.863 3-3.674V4.5A3.754 3.754 0 0 0 13.5.75M15.75 9c0 1.24-1.01 2.25-2.25 2.25h-9c-1.24 0-2.25-1.01-2.25-2.25V4.5c0-1.24 1.01-2.25 2.25-2.25h9c1.24 0 2.25 1.01 2.25 2.25z"></path></g><defs><clipPath id="count_svg__a"><path d="M0 0h18v18H0z"></path></clipPath></defs></svg>