<svg width="22" height="16" viewBox="0 0 22 16" fill="none" xmlns="http://www.w3.org/2000/svg">
<path d="M10.9931 16C6.51361 16 2.70795 12.415 0.838318 10.2783C-0.279358 9.00098 -0.279358 6.99902 0.83783 5.72168C2.70795 3.58496 6.51361 0 10.9931 0C15.4716 0 19.2773 3.58496 21.1484 5.72168C22.2656 6.99902 22.2656 9.00098 21.1484 10.2783C19.2773 12.415 15.4716 16 10.9931 16ZM10.9931 2C7.30316 2 3.98969 5.15625 2.3432 7.03809C1.87982 7.56836 1.87982 8.43164 2.34369 8.96192C3.98969 10.8438 7.30316 14 10.9931 14C14.6816 14 17.996 10.8428 19.6425 8.96192C20.1064 8.43164 20.1064 7.56836 19.6425 7.03809C17.996 5.15625 14.6816 2 10.9931 2ZM10.9931 12C8.78754 12 6.9931 10.2061 6.9931 8C6.9931 5.79395 8.78754 4 10.9931 4C13.1992 4 14.9931 5.79395 14.9931 8C14.9931 10.2061 13.1992 12 10.9931 12ZM10.9931 6C9.89008 6 8.9931 6.89746 8.9931 8C8.9931 9.10254 9.89008 10 10.9931 10C12.0956 10 12.9931 9.10254 12.9931 8C12.9931 6.89746 12.0956 6 10.9931 6Z" fill="white"/>
</svg>
