<svg width="14" height="14" viewBox="0 0 14 14" fill="none" xmlns="http://www.w3.org/2000/svg">
<path d="M13.4833 5.11292L11.875 3.98712V1.875C11.875 0.841064 11.0339 0 10 0H3.75C2.71606 0 1.875 0.841064 1.875 1.875V3.98712L0.266724 5.11292C0.0994875 5.2298 0 5.42114 0 5.625V10.625C0 12.348 1.40198 13.75 3.125 13.75H10.625C12.348 13.75 13.75 12.348 13.75 10.625V5.625C13.75 5.42114 13.6505 5.2298 13.4833 5.11292ZM3.75 1.25H10C10.3448 1.25 10.625 1.53046 10.625 1.875V6.61198L6.875 9.23706L3.125 6.61194V1.875C3.125 1.53046 3.40515 1.25 3.75 1.25ZM10.625 12.5H3.125C2.09106 12.5 1.25 11.6589 1.25 10.625V6.82518L2.1405 7.44858C2.14096 7.44888 2.14127 7.44934 2.14172 7.44965L3.92303 8.69652L3.30811 9.37622C3.07617 9.63226 3.09631 10.0275 3.35205 10.2591C3.47168 10.3671 3.62183 10.4205 3.77136 10.4205C3.94165 10.4205 4.11133 10.3513 4.23462 10.2148L4.95483 9.41879L6.51672 10.5121C6.62415 10.5875 6.74988 10.625 6.875 10.625C7.00012 10.625 7.12585 10.5875 7.23328 10.5121L8.79517 9.41879L9.51538 10.2148C9.63867 10.3513 9.80835 10.4205 9.97864 10.4205C10.1282 10.4205 10.2783 10.3671 10.3979 10.2591C10.6537 10.0275 10.6738 9.63226 10.4419 9.37622L9.82696 8.69652L11.6083 7.44965C11.6087 7.44938 11.6089 7.44904 11.6093 7.44877L12.5 6.82522V10.625C12.5 11.6589 11.6589 12.5 10.625 12.5ZM4.375 5.625C4.375 5.27985 4.65454 5 5 5H8.75C9.09546 5 9.375 5.27985 9.375 5.625C9.375 5.97015 9.09546 6.25 8.75 6.25H5C4.65454 6.25 4.375 5.97015 4.375 5.625ZM4.375 3.125C4.375 2.77985 4.65454 2.5 5 2.5H8.75C9.09546 2.5 9.375 2.77985 9.375 3.125C9.375 3.47015 9.09546 3.75 8.75 3.75H5C4.65454 3.75 4.375 3.47015 4.375 3.125Z" fill="#DB0D15"/>
</svg>
