<svg width="18" height="21" viewBox="0 0 18 21" fill="none" xmlns="http://www.w3.org/2000/svg">
<path d="M6.21802 3.63049C6.20986 3.56504 6.19784 3.51181 6.18195 3.46687C6.16606 3.42193 6.14158 3.38484 6.11366 3.34819C6.01274 3.2173 5.85986 3.15186 5.65845 3.15186H5.19507V5.21123H5.65845C5.85986 5.21123 6.01317 5.14971 6.11366 5.01882C6.14201 4.98217 6.16606 4.94115 6.18195 4.89621C6.19827 4.8552 6.21029 4.79804 6.21802 4.73653C6.22618 4.67108 6.23434 4.59734 6.23434 4.5031C6.2382 4.41279 6.2382 4.30633 6.2382 4.18372C6.2382 4.06112 6.2382 3.9503 6.23434 3.86042C6.23434 3.77054 6.22618 3.69244 6.21802 3.63136V3.63049Z" fill="#676A73"/>
<path d="M2.9456 3.15137H2.37744V4.01918H2.9456C3.0826 4.01918 3.19555 3.97817 3.27628 3.90051C3.35272 3.82284 3.39309 3.71639 3.39309 3.58942C3.39309 3.45853 3.35272 3.35207 3.27628 3.27397C3.19555 3.19194 3.08303 3.15137 2.9456 3.15137Z" fill="#676A73"/>
<path d="M10.9652 4.0669C10.9652 2.69035 9.86706 1.57471 8.51214 1.57471H2.45302C1.09811 1.57471 0 2.69035 0 4.0669C0 5.44345 1.09811 6.55909 2.45302 6.55909H8.51171C9.86663 6.55909 10.9647 5.44345 10.9647 4.0669H10.9652ZM3.93334 3.96611C3.88481 4.08871 3.82039 4.19124 3.73193 4.28156C3.64303 4.37188 3.53438 4.44518 3.40941 4.49448C3.28057 4.54771 3.13542 4.57214 2.97438 4.57214H2.37787V5.7637H1.76934V2.60265H2.97438C3.13542 2.60265 3.28057 2.62708 3.40941 2.68031C3.53438 2.72961 3.64303 2.80335 3.73193 2.89323C3.82039 2.98311 3.88524 3.08957 3.93334 3.20868C3.97757 3.32736 4.00162 3.45432 4.00162 3.58958C4.00162 3.72047 3.97757 3.84743 3.93334 3.96611ZM6.84287 4.53942C6.839 4.6498 6.83471 4.74841 6.82268 4.83829C6.81066 4.92817 6.79048 5.0102 6.76213 5.08786C6.73379 5.16159 6.69771 5.23533 6.64919 5.30078C6.54054 5.46046 6.40741 5.57914 6.25839 5.65288C6.10507 5.72661 5.92384 5.76326 5.71041 5.76326H4.58997V2.60265H5.71041C5.92384 2.60265 6.1055 2.6393 6.25839 2.71303C6.40741 2.78677 6.54054 2.90545 6.64919 3.06513C6.69771 3.13058 6.73379 3.20432 6.76213 3.27805C6.79048 3.35572 6.81066 3.43774 6.82268 3.52762C6.83471 3.61794 6.839 3.71611 6.84287 3.82649C6.84673 3.93295 6.84673 4.05163 6.84673 4.18296C6.84673 4.31385 6.84673 4.43252 6.84287 4.53898V4.53942ZM7.99938 5.7637H7.39085V2.60265H9.44233V3.15109H7.99938V3.92902H9.22847V4.48183H7.99938V5.76326V5.7637Z" fill="#676A73"/>
<path d="M18 4.17459C18 1.87307 16.1568 0 13.891 0H11.4255C10.9716 0 10.6036 0.373479 10.6036 0.835093C10.6036 1.29671 10.9716 1.67019 11.4255 1.67019H13.891C15.2507 1.67019 16.3565 2.79368 16.3565 4.17503V16.2808C16.3565 17.6622 15.2507 18.7857 13.891 18.7857H7.31699C5.95735 18.7857 4.85152 17.6622 4.85152 16.2808V9.18428C4.85152 8.72267 4.48348 8.34919 4.02955 8.34919C3.57562 8.34919 3.20758 8.72267 3.20758 9.18428V16.2808C3.20758 18.5824 5.05078 20.4554 7.31657 20.4554H13.8906C16.156 20.4554 17.9996 18.5828 17.9996 16.2808V4.17459H18Z" fill="#676A73"/>
<path d="M11.5127 7.95268C11.5089 7.82833 11.4908 7.71184 11.4595 7.6032C11.4122 7.42868 11.3328 7.27379 11.2224 7.14726C11.2224 7.14726 11.2211 7.14595 11.2185 7.14333C11.0425 6.94263 10.7977 6.82788 10.5482 6.82788C10.2987 6.82788 10.0659 6.93827 9.89755 7.14115C9.73136 7.34185 9.64246 7.61716 9.6386 7.94047C9.63258 8.43437 9.67209 8.90252 9.75541 9.33447C9.76314 9.3685 9.76915 9.40297 9.77731 9.437C9.86019 9.82881 9.98301 10.2001 10.1411 10.5457C9.9551 10.9292 9.76743 11.2608 9.63688 11.4855C9.5381 11.6561 9.42945 11.8349 9.31651 12.0138C8.80847 12.1063 8.3773 12.2189 8.00196 12.3594C7.49392 12.5461 7.0868 12.787 6.79391 13.0745C6.6041 13.2591 6.47569 13.4563 6.41213 13.6609C6.34471 13.8716 6.349 14.0828 6.42416 14.2713C6.4933 14.4458 6.61784 14.5929 6.78404 14.6932C6.82355 14.7172 6.8652 14.7373 6.90858 14.7556C7.03526 14.808 7.17355 14.8359 7.31784 14.8359C7.65196 14.8359 7.99595 14.6893 8.28668 14.4262C8.82822 13.934 9.3878 13.143 9.71804 12.6426C9.98903 12.6002 10.2836 12.564 10.6156 12.5282C11.0073 12.4881 11.353 12.4641 11.6673 12.4519C11.7644 12.5405 11.8571 12.6247 11.946 12.7049C12.4403 13.153 12.8157 13.4763 13.1558 13.7032C13.1558 13.7054 13.1579 13.7054 13.1597 13.7054C13.2941 13.7957 13.4225 13.8699 13.5509 13.9305C13.6952 13.999 13.8416 14.0348 13.9919 14.0348C14.1818 14.0348 14.3595 13.9768 14.5077 13.8703C14.658 13.7599 14.7667 13.6011 14.8161 13.4222C14.8736 13.2076 14.8397 12.9685 14.7211 12.7534C14.6559 12.6369 14.567 12.5265 14.4562 12.4261C14.3651 12.3419 14.2586 12.2634 14.138 12.191C13.6518 11.9 12.9578 11.759 12.0147 11.759H11.9198C11.8683 11.711 11.8151 11.6626 11.7597 11.6124C11.4019 11.2852 11.1172 10.9296 10.8956 10.5339C11.3306 9.5596 11.5381 8.69222 11.5123 7.95312L11.5127 7.95268ZM8.37129 13.3354C8.18147 13.5684 7.99981 13.7652 7.83533 13.914C7.6949 14.0427 7.54073 14.1229 7.39429 14.143C7.36852 14.1469 7.34275 14.1491 7.31698 14.1491C7.18858 14.1491 7.08379 14.0968 7.05201 14.0165C7.01852 13.9323 7.05588 13.7695 7.26158 13.5684C7.57594 13.263 8.06809 13.0221 8.75393 12.8393C8.62337 13.02 8.49497 13.1849 8.37043 13.3354H8.37129ZM13.7961 12.783C13.9086 12.8494 13.9937 12.9174 14.0512 12.9837C14.1461 13.0863 14.1796 13.1788 14.162 13.2407C14.1461 13.3031 14.077 13.345 13.9919 13.345C13.9426 13.345 13.891 13.3328 13.8378 13.3071C13.7467 13.263 13.6518 13.2084 13.5509 13.1426C13.547 13.1426 13.5432 13.1386 13.5389 13.1347C13.3035 12.982 13.0407 12.7673 12.7165 12.4798C13.1773 12.5278 13.5389 12.6303 13.7957 12.783H13.7961ZM10.3146 7.94876C10.3184 7.68959 10.4116 7.51507 10.5477 7.51507C10.6504 7.51507 10.7595 7.60931 10.8088 7.79038C10.8226 7.84448 10.8325 7.90687 10.8346 7.97712C10.8385 8.06132 10.8368 8.14989 10.8325 8.24021C10.8204 8.49545 10.7771 8.7664 10.7019 9.05785C10.6564 9.24459 10.5971 9.43962 10.5241 9.6425C10.4412 9.35716 10.3815 9.05392 10.3502 8.73062C10.3227 8.48149 10.3107 8.22232 10.3146 7.94919V7.94876ZM10.9652 11.7787L10.9334 11.7808L10.9609 11.807C10.8797 11.8131 10.7947 11.821 10.7096 11.8293C10.6564 11.8354 10.601 11.8393 10.5456 11.8454C10.4309 11.8576 10.3184 11.8694 10.2115 11.8816L10.2252 11.8594L10.2033 11.8633C10.2072 11.8533 10.2132 11.8432 10.2192 11.8354C10.3021 11.6927 10.4069 11.5099 10.5198 11.2992L10.5297 11.3214L10.5555 11.2673C10.6384 11.3877 10.7294 11.5064 10.8243 11.6207C10.8698 11.6748 10.9171 11.7272 10.9647 11.7795L10.9652 11.7787Z" fill="#676A73"/>
</svg>
