<svg width="17" height="24" viewBox="0 0 17 24" fill="none" xmlns="http://www.w3.org/2000/svg">
<path d="M14.45 24H2.55C1.14385 24 0 22.8465 0 21.4286V6C0 4.58203 1.14385 3.42857 2.55 3.42857H5.95V0.857143C5.95 0.383789 6.33059 0 6.8 0H10.2C10.6698 0 11.05 0.383789 11.05 0.857143V3.42857H14.45C15.8562 3.42857 17 4.58203 17 6V21.4286C17 22.8465 15.8562 24 14.45 24ZM2.55 5.14286C2.08142 5.14286 1.7 5.52748 1.7 6V21.4286C1.7 21.9011 2.08142 22.2857 2.55 22.2857H14.45C14.919 22.2857 15.3 21.9011 15.3 21.4286V6C15.3 5.52748 14.919 5.14286 14.45 5.14286H11.05V6.85714C11.05 7.3305 10.6698 7.71429 10.2 7.71429H6.8C6.33059 7.71429 5.95 7.3305 5.95 6.85714V5.14286H2.55ZM7.65 6H9.35V1.71429H7.65V6ZM11.475 19.7143H5.525C5.05559 19.7143 4.675 19.3305 4.675 18.8571V17.5714C4.675 16.2765 5.31084 15.1285 6.28452 14.4287C5.81262 13.8976 5.525 13.1961 5.525 12.4286C5.525 10.7746 6.85977 9.42857 8.5 9.42857C10.1402 9.42857 11.475 10.7746 11.475 12.4286C11.475 13.1961 11.1878 13.8976 10.7155 14.4287C11.6892 15.1285 12.325 16.2765 12.325 17.5714V18.8571C12.325 19.3305 11.9448 19.7143 11.475 19.7143ZM6.375 18H10.625V17.5714C10.625 16.3899 9.67207 15.4286 8.5 15.4286C7.32834 15.4286 6.375 16.3899 6.375 17.5714V18ZM8.5 11.1429C7.79692 11.1429 7.225 11.7196 7.225 12.4286C7.225 13.1376 7.79692 13.7143 8.5 13.7143C9.20308 13.7143 9.775 13.1376 9.775 12.4286C9.775 11.7196 9.20308 11.1429 8.5 11.1429Z" fill="white"/>
</svg>
