<svg width="17" height="17" viewBox="0 0 17 17" fill="none" xmlns="http://www.w3.org/2000/svg">
<path d="M16.1799 6.1355L14.25 4.78455V2.25C14.25 1.00928 13.2407 0 12 0H4.5C3.25928 0 2.25 1.00928 2.25 2.25V4.78455L0.320069 6.1355C0.119385 6.27576 0 6.50537 0 6.75V12.75C0 14.8176 1.68237 16.5 3.75 16.5H12.75C14.8176 16.5 16.5 14.8176 16.5 12.75V6.75C16.5 6.50537 16.3806 6.27576 16.1799 6.1355ZM4.5 1.5H12C12.4138 1.5 12.75 1.83655 12.75 2.25V7.93437L8.25 11.0845L3.75 7.93433V2.25C3.75 1.83655 4.08618 1.5 4.5 1.5ZM12.75 15H3.75C2.50928 15 1.5 13.9907 1.5 12.75V8.19022L2.5686 8.93829C2.56915 8.93866 2.56952 8.93921 2.57007 8.93958L4.70764 10.4358L3.96973 11.2515C3.69141 11.5587 3.71558 12.033 4.02246 12.3109C4.16602 12.4406 4.34619 12.5046 4.52563 12.5046C4.72998 12.5046 4.93359 12.4215 5.08154 12.2578L5.9458 11.3026L7.82007 12.6145C7.94897 12.705 8.09985 12.75 8.25 12.75C8.40015 12.75 8.55102 12.705 8.67993 12.6145L10.5542 11.3026L11.4185 12.2578C11.5664 12.4215 11.77 12.5046 11.9744 12.5046C12.1538 12.5046 12.334 12.4406 12.4775 12.3109C12.7844 12.033 12.8086 11.5587 12.5303 11.2515L11.7924 10.4358L13.9299 8.93958C13.9304 8.93926 13.9307 8.93884 13.9311 8.93852L15 8.19026V12.75C15 13.9907 13.9907 15 12.75 15ZM5.25 6.75C5.25 6.33582 5.58545 6 6 6H10.5C10.9146 6 11.25 6.33582 11.25 6.75C11.25 7.16419 10.9146 7.5 10.5 7.5H6C5.58545 7.5 5.25 7.16419 5.25 6.75ZM5.25 3.75C5.25 3.33582 5.58545 3 6 3H10.5C10.9146 3 11.25 3.33582 11.25 3.75C11.25 4.16419 10.9146 4.5 10.5 4.5H6C5.58545 4.5 5.25 4.16419 5.25 3.75Z" fill="#2A2C31"/>
</svg>
